<mxfile host="app.diagrams.net" modified="2020-09-25T13:53:02.787Z" agent="5.0 (Windows NT 10.0; Win64; x64) AppleWebKit/537.36 (KHTML, like Gecko) Chrome/85.0.4183.121 Safari/537.36" etag="qsQt4KoSvsHG8BSZSI0E" version="13.7.5" type="github">
  <diagram id="hwNJ2MDuEI9RsZFI4b82" name="Page-1">
    <mxGraphModel dx="766" dy="450" grid="1" gridSize="10" guides="1" tooltips="1" connect="1" arrows="1" fold="1" page="1" pageScale="1" pageWidth="827" pageHeight="1169" math="0" shadow="0">
      <root>
        <mxCell id="0" />
        <mxCell id="1" parent="0" />
        <mxCell id="CssqFvXEw_sw6NTqal2u-10" style="edgeStyle=orthogonalEdgeStyle;rounded=0;orthogonalLoop=1;jettySize=auto;html=1;entryX=0;entryY=0.5;entryDx=0;entryDy=0;" edge="1" parent="1" source="CssqFvXEw_sw6NTqal2u-2" target="CssqFvXEw_sw6NTqal2u-4">
          <mxGeometry relative="1" as="geometry" />
        </mxCell>
        <mxCell id="CssqFvXEw_sw6NTqal2u-11" style="edgeStyle=orthogonalEdgeStyle;rounded=0;orthogonalLoop=1;jettySize=auto;html=1;" edge="1" parent="1" source="CssqFvXEw_sw6NTqal2u-2" target="CssqFvXEw_sw6NTqal2u-3">
          <mxGeometry relative="1" as="geometry" />
        </mxCell>
        <mxCell id="CssqFvXEw_sw6NTqal2u-2" value="inicio" style="rounded=1;whiteSpace=wrap;html=1;" vertex="1" parent="1">
          <mxGeometry x="170" y="150" width="120" height="60" as="geometry" />
        </mxCell>
        <mxCell id="CssqFvXEw_sw6NTqal2u-12" style="edgeStyle=orthogonalEdgeStyle;rounded=0;orthogonalLoop=1;jettySize=auto;html=1;entryX=0.5;entryY=0;entryDx=0;entryDy=0;" edge="1" parent="1" source="CssqFvXEw_sw6NTqal2u-3" target="CssqFvXEw_sw6NTqal2u-5">
          <mxGeometry relative="1" as="geometry" />
        </mxCell>
        <mxCell id="CssqFvXEw_sw6NTqal2u-3" value="loop" style="rounded=1;whiteSpace=wrap;html=1;" vertex="1" parent="1">
          <mxGeometry x="170" y="270" width="120" height="60" as="geometry" />
        </mxCell>
        <mxCell id="CssqFvXEw_sw6NTqal2u-4" value="definir pin 1 y pin 2&lt;br&gt;definir boton" style="rounded=1;whiteSpace=wrap;html=1;" vertex="1" parent="1">
          <mxGeometry x="330" y="150" width="120" height="60" as="geometry" />
        </mxCell>
        <mxCell id="CssqFvXEw_sw6NTqal2u-13" style="edgeStyle=orthogonalEdgeStyle;rounded=0;orthogonalLoop=1;jettySize=auto;html=1;entryX=0;entryY=0.5;entryDx=0;entryDy=0;" edge="1" parent="1" source="CssqFvXEw_sw6NTqal2u-5" target="CssqFvXEw_sw6NTqal2u-7">
          <mxGeometry relative="1" as="geometry" />
        </mxCell>
        <mxCell id="CssqFvXEw_sw6NTqal2u-14" style="edgeStyle=orthogonalEdgeStyle;rounded=0;orthogonalLoop=1;jettySize=auto;html=1;entryX=0.5;entryY=0;entryDx=0;entryDy=0;" edge="1" parent="1" source="CssqFvXEw_sw6NTqal2u-5" target="CssqFvXEw_sw6NTqal2u-6">
          <mxGeometry relative="1" as="geometry" />
        </mxCell>
        <mxCell id="CssqFvXEw_sw6NTqal2u-18" style="edgeStyle=orthogonalEdgeStyle;rounded=0;orthogonalLoop=1;jettySize=auto;html=1;entryX=0;entryY=0.75;entryDx=0;entryDy=0;" edge="1" parent="1" source="CssqFvXEw_sw6NTqal2u-5" target="CssqFvXEw_sw6NTqal2u-17">
          <mxGeometry relative="1" as="geometry" />
        </mxCell>
        <mxCell id="CssqFvXEw_sw6NTqal2u-5" value="presion boton" style="rounded=1;whiteSpace=wrap;html=1;" vertex="1" parent="1">
          <mxGeometry x="170" y="370" width="120" height="60" as="geometry" />
        </mxCell>
        <mxCell id="CssqFvXEw_sw6NTqal2u-16" style="edgeStyle=orthogonalEdgeStyle;rounded=0;orthogonalLoop=1;jettySize=auto;html=1;" edge="1" parent="1" source="CssqFvXEw_sw6NTqal2u-6" target="CssqFvXEw_sw6NTqal2u-8">
          <mxGeometry relative="1" as="geometry" />
        </mxCell>
        <mxCell id="CssqFvXEw_sw6NTqal2u-6" value="suelto boton" style="rounded=1;whiteSpace=wrap;html=1;" vertex="1" parent="1">
          <mxGeometry x="170" y="540" width="120" height="60" as="geometry" />
        </mxCell>
        <mxCell id="CssqFvXEw_sw6NTqal2u-7" value="enciende led 1" style="rounded=1;whiteSpace=wrap;html=1;" vertex="1" parent="1">
          <mxGeometry x="354" y="370" width="120" height="60" as="geometry" />
        </mxCell>
        <mxCell id="CssqFvXEw_sw6NTqal2u-8" value="enciendi led 2" style="rounded=1;whiteSpace=wrap;html=1;" vertex="1" parent="1">
          <mxGeometry x="370" y="540" width="120" height="60" as="geometry" />
        </mxCell>
        <mxCell id="CssqFvXEw_sw6NTqal2u-17" value="apago led 1" style="rounded=1;whiteSpace=wrap;html=1;" vertex="1" parent="1">
          <mxGeometry x="354" y="440" width="120" height="60" as="geometry" />
        </mxCell>
      </root>
    </mxGraphModel>
  </diagram>
</mxfile>
